<svg viewBox="0 0 800 800" fill="none" xmlns="http://www.w3.org/2000/svg">
<path d="M163.831 536.261L95.0884 731.005L219.678 689.442L290.54 800L360.14 602.858L294.022 545.27L163.831 536.261Z" fill="#FFD700"/>
<path d="M636.195 536.261L506.028 545.27L439.885 602.858L509.46 800L580.322 689.442L704.937 731.005L636.195 536.261Z" fill="#FFD700"/>
<path d="M604.574 493.915L612.649 377.401L689.341 289.354L612.649 201.281L604.574 84.7671L488.111 76.6916L400.038 0L311.94 76.6916L195.451 84.7671L187.376 201.306L110.709 289.379L187.376 377.427L195.451 493.915L311.965 501.965L400.063 578.606L488.136 501.965L604.574 493.915ZM398.499 449.853C309.012 449.853 236.434 377.3 236.434 287.84C236.434 198.379 308.987 125.775 398.499 125.775C488.01 125.775 560.563 198.353 560.563 287.84C560.563 377.326 487.985 449.853 398.499 449.853Z" fill="#FFD700"/>
<path d="M429.029 178.279V392H387.867V228.67L347.145 244.344V210.066L424.488 178.279H429.029Z" fill="#FFD700"/>
</svg>
