<svg viewBox="0 0 800 800" fill="none" xmlns="http://www.w3.org/2000/svg">
<path d="M163.831 536.261L95.0884 731.005L219.678 689.442L290.54 800L360.14 602.858L294.022 545.27L163.831 536.261Z" fill="#C0C0C0"/>
<path d="M636.194 536.261L506.028 545.27L439.885 602.858L509.46 800L580.322 689.442L704.937 731.005L636.194 536.261Z" fill="#C0C0C0"/>
<path d="M604.574 493.915L612.649 377.401L689.341 289.354L612.649 201.281L604.574 84.7671L488.111 76.6916L400.038 0L311.94 76.6916L195.451 84.7671L187.376 201.306L110.709 289.379L187.376 377.427L195.451 493.915L311.965 501.965L400.063 578.606L488.136 501.965L604.574 493.915ZM398.499 449.853C309.012 449.853 236.434 377.3 236.434 287.84C236.434 198.379 308.987 125.775 398.499 125.775C488.01 125.775 560.563 198.353 560.563 287.84C560.563 377.326 487.985 449.853 398.499 449.853Z" fill="#C0C0C0"/>
<path d="M463.6 357.869V392H337.916V362.85L395.631 289.461C401.197 281.844 405.543 275.105 408.668 269.246C411.793 263.387 414.039 258.162 415.406 253.572C416.773 248.885 417.457 244.441 417.457 240.242C417.457 233.992 416.725 228.621 415.26 224.129C413.795 219.539 411.598 216.023 408.668 213.582C405.836 211.043 402.32 209.773 398.121 209.773C393.043 209.773 388.844 211.336 385.523 214.461C382.203 217.586 379.713 221.883 378.053 227.352C376.49 232.723 375.709 238.826 375.709 245.662H334.547C334.547 232.967 337.135 221.297 342.311 210.652C347.584 199.91 354.957 191.414 364.43 185.164C374 178.816 385.475 175.643 398.854 175.643C411.842 175.643 422.779 178.084 431.666 182.967C440.553 187.85 447.242 194.832 451.734 203.914C456.324 212.898 458.619 223.689 458.619 236.287C458.619 243.318 457.691 250.203 455.836 256.941C453.98 263.582 451.344 270.223 447.926 276.863C444.508 283.406 440.26 290.096 435.182 296.932C430.201 303.768 424.635 310.848 418.482 318.172L390.65 357.869H463.6Z" fill="#C0C0C0"/>
</svg>
