<svg viewBox="0 0 800 800" fill="none" xmlns="http://www.w3.org/2000/svg">
<path d="M163.831 536.261L95.0884 731.005L219.678 689.442L290.54 800L360.14 602.858L294.022 545.27L163.831 536.261Z" fill="#CD7F32"/>
<path d="M636.194 536.261L506.028 545.27L439.885 602.858L509.46 800L580.322 689.442L704.937 731.005L636.194 536.261Z" fill="#CD7F32"/>
<path d="M604.574 493.915L612.649 377.401L689.341 289.354L612.649 201.281L604.574 84.7671L488.111 76.6916L400.038 0L311.94 76.6916L195.451 84.7671L187.376 201.306L110.709 289.379L187.376 377.427L195.451 493.915L311.965 501.965L400.063 578.606L488.136 501.965L604.574 493.915ZM398.499 449.853C309.012 449.853 236.434 377.3 236.434 287.84C236.434 198.379 308.987 125.775 398.499 125.775C488.01 125.775 560.563 198.353 560.563 287.84C560.563 377.326 487.985 449.853 398.499 449.853Z" fill="#CD7F32"/>
<path d="M374.83 266.463H394.898C399.977 266.463 404.176 265.291 407.496 262.947C410.816 260.506 413.258 257.088 414.82 252.693C416.383 248.201 417.164 242.977 417.164 237.02C417.164 231.746 416.432 227.107 414.967 223.104C413.502 219.002 411.256 215.779 408.229 213.436C405.201 210.994 401.393 209.773 396.803 209.773C393.287 209.773 389.967 210.75 386.842 212.703C383.814 214.559 381.422 217.293 379.664 220.906C377.906 224.52 377.027 228.816 377.027 233.797H335.865C335.865 222.078 338.502 211.873 343.775 203.182C349.146 194.49 356.373 187.752 365.455 182.967C374.537 178.084 384.596 175.643 395.631 175.643C408.033 175.643 418.922 177.938 428.297 182.527C437.672 187.117 444.996 193.953 450.27 203.035C455.543 212.02 458.18 223.152 458.18 236.434C458.18 243.27 456.91 249.861 454.371 256.209C451.832 262.459 448.121 268.123 443.238 273.201C438.355 278.279 432.398 282.283 425.367 285.213C418.336 288.143 410.377 289.607 401.49 289.607H374.83V266.463ZM374.83 299.715V277.303H401.49C411.549 277.303 420.289 278.621 427.711 281.258C435.133 283.797 441.285 287.508 446.168 292.391C451.148 297.273 454.859 303.084 457.301 309.822C459.742 316.463 460.963 323.885 460.963 332.088C460.963 342.049 459.303 350.936 455.982 358.748C452.662 366.561 448.023 373.152 442.066 378.523C436.109 383.895 429.176 387.996 421.266 390.828C413.355 393.562 404.762 394.93 395.484 394.93C387.77 394.93 380.201 393.709 372.779 391.268C365.455 388.826 358.863 385.066 353.004 379.988C347.145 374.91 342.506 368.514 339.088 360.799C335.67 353.084 333.961 343.953 333.961 333.406H374.977C374.977 338.68 375.904 343.416 377.76 347.615C379.713 351.717 382.301 354.939 385.523 357.283C388.746 359.627 392.408 360.799 396.51 360.799C401.295 360.799 405.445 359.578 408.961 357.137C412.477 354.695 415.162 351.277 417.018 346.883C418.873 342.488 419.801 337.41 419.801 331.648C419.801 324.031 418.824 317.928 416.871 313.338C414.918 308.65 412.086 305.232 408.375 303.084C404.664 300.838 400.172 299.715 394.898 299.715H374.83Z" fill="#CD7F32"/>
</svg>
